<svg width="168" height="30" viewBox="0 0 168 30" fill="none" xmlns="http://www.w3.org/2000/svg">
<path fill-rule="evenodd" clip-rule="evenodd" d="M0 29.3054V0H11.9834C13.5678 0 14.9992 0.28609 16.2774 0.85832C17.5689 1.43055 18.6674 2.20027 19.5728 3.16758C20.4915 4.13489 21.1972 5.25891 21.6899 6.53955C22.1825 7.82023 22.4288 9.17582 22.4288 10.6063C22.4288 12.0232 22.1825 13.372 21.6899 14.6527C21.1972 15.9333 20.4915 17.0573 19.5728 18.0246C18.6674 18.9919 17.5689 19.7617 16.2774 20.3339C14.9992 20.9061 13.5678 21.1922 11.9834 21.1922H6.63079V29.3054H0ZM6.63079 15.654H11.1645C11.8436 15.654 12.4693 15.5178 13.0419 15.2453C13.6277 14.9592 14.1137 14.5914 14.4999 14.1418C14.8993 13.6786 15.2055 13.1404 15.4186 12.5273C15.6449 11.9142 15.7581 11.2739 15.7581 10.6063C15.7581 9.93874 15.6449 9.29845 15.4186 8.68535C15.2055 8.05865 14.8993 7.5205 14.4999 7.0709C14.1137 6.60766 13.6344 6.23981 13.0619 5.96736C12.4893 5.68122 11.8569 5.53821 11.1645 5.53821H6.63079V15.654Z" fill="#FCFCFC"/>
<path fill-rule="evenodd" clip-rule="evenodd" d="M22.9098 19.21C22.9098 17.7658 23.1561 16.4034 23.6488 15.1227C24.1547 13.8421 24.8804 12.7181 25.8257 11.7508C26.7711 10.7835 27.9162 10.0137 29.261 9.44147C30.6058 8.8693 32.137 8.58315 33.8546 8.58315C35.5722 8.58315 37.1034 8.8693 38.4482 9.44147C39.8063 10.0137 40.9514 10.7835 41.8834 11.7508C42.8288 12.7181 43.5478 13.8421 44.0404 15.1227C44.5331 16.4034 44.7794 17.7658 44.7794 19.21C44.7794 20.6541 44.5331 22.0233 44.0404 23.3176C43.5478 24.5982 42.8288 25.7223 41.8834 26.6895C40.9514 27.6568 39.8063 28.4266 38.4482 28.9988C37.1034 29.5711 35.5722 29.8571 33.8546 29.8571C32.137 29.8571 30.6058 29.5711 29.261 28.9988C27.9162 28.4266 26.7711 27.6568 25.8257 26.6895C24.8804 25.7223 24.1547 24.5982 23.6488 23.3176C23.1561 22.0369 22.9098 20.6677 22.9098 19.21ZM29.1611 19.21C29.1611 19.932 29.2676 20.6064 29.4807 21.2331C29.707 21.8462 30.0199 22.3912 30.4194 22.868C30.8321 23.3312 31.3248 23.699 31.8973 23.9715C32.4698 24.2304 33.109 24.3598 33.8146 24.3598C34.5203 24.3598 35.1661 24.2304 35.7519 23.9715C36.3511 23.699 36.8504 23.3312 37.2499 22.868C37.6626 22.3912 37.9822 21.8462 38.2085 21.2331C38.4482 20.62 38.568 19.9456 38.568 19.21C38.568 18.5151 38.4482 17.8544 38.2085 17.2276C37.9822 16.6009 37.6626 16.056 37.2499 15.5927C36.8504 15.1295 36.3578 14.7617 35.7719 14.4892C35.1861 14.2167 34.5336 14.0805 33.8146 14.0805C33.109 14.0805 32.4698 14.2167 31.8973 14.4892C31.3248 14.7617 30.8321 15.1295 30.4194 15.5927C30.0199 16.056 29.707 16.6009 29.4807 17.2276C29.2676 17.8544 29.1611 18.5151 29.1611 19.21Z" fill="#FCFCFC"/>
<path d="M47.0978 29.3054V9.13495H53.3491V11.669C53.8151 10.7153 55.5508 9.13495 59.4606 9.13495H62.4342V3.14714H68.6655V9.13495H73.1593V14.4892H68.6655V21.1105C68.6655 21.8598 68.7321 22.4593 68.8653 22.9089C68.9984 23.3448 69.1848 23.6922 69.4245 23.9511C69.6775 24.1964 69.9771 24.3598 70.3232 24.4416C70.6827 24.5097 71.0822 24.5438 71.5216 24.5438C71.7879 24.5438 72.1274 24.5369 72.5402 24.5233C72.9529 24.496 73.3124 24.4552 73.6187 24.4007V29.3054C73.1527 29.3871 72.5668 29.4621 71.8611 29.5302C71.1687 29.5983 70.3499 29.6323 69.4045 29.6323C68.6722 29.6323 67.8999 29.5779 67.0877 29.4689C66.2755 29.3599 65.5232 29.0737 64.8309 28.6105C64.1385 28.1473 63.566 27.4389 63.1132 26.4852C62.6605 25.5179 62.4342 24.1964 62.4342 22.5206V14.4892H59.4606C56.7532 14.4892 55.5548 15.3932 54.5283 16.9374C53.3491 18.7113 53.3491 21.0451 53.3491 23.195V29.3054H47.0978Z" fill="#FCFCFC"/>
<path fill-rule="evenodd" clip-rule="evenodd" d="M75.302 15.0001C74.836 16.2944 74.603 17.6977 74.603 19.21C74.603 20.7222 74.836 22.1255 75.302 23.4198C75.7814 24.7141 76.4405 25.8313 77.2793 26.7713C78.1314 27.7114 79.1234 28.4539 80.2551 28.9988C81.4002 29.5438 82.6252 29.8163 83.93 29.8163C85.4479 29.8163 86.7528 29.4893 87.8446 28.8353C88.9364 28.1814 89.7287 27.3912 90.2213 26.4648V29.3054H96.4726V9.13495H90.2213V12.0164C89.6754 11.0355 88.8565 10.2249 87.7647 9.58455C86.6862 8.9442 85.408 8.62403 83.93 8.62403C82.6119 8.62403 81.3869 8.89653 80.2551 9.44147C79.1234 9.98647 78.1314 10.7289 77.2793 11.669C76.4405 12.5955 75.7814 13.7058 75.302 15.0001ZM81.1539 21.2127C80.9276 20.5723 80.8144 19.9048 80.8144 19.21C80.8144 18.5151 80.9276 17.8612 81.1539 17.2481C81.3936 16.635 81.7131 16.09 82.1126 15.6132C82.5253 15.1363 83.018 14.7617 83.5905 14.4892C84.1631 14.2167 84.8022 14.0805 85.5079 14.0805C86.2269 14.0805 86.8726 14.2167 87.4452 14.4892C88.0177 14.7617 88.5037 15.1363 88.9031 15.6132C89.3159 16.09 89.6355 16.635 89.8618 17.2481C90.1015 17.8612 90.2213 18.5151 90.2213 19.21C90.2213 19.9184 90.1015 20.586 89.8618 21.2127C89.6355 21.8394 89.3159 22.3843 88.9031 22.8476C88.5037 23.2972 88.011 23.665 87.4252 23.9511C86.8527 24.2236 86.2135 24.3598 85.5079 24.3598C84.8022 24.3598 84.1631 24.2236 83.5905 23.9511C83.018 23.665 82.5253 23.2972 82.1126 22.8476C81.7131 22.3843 81.3936 21.8394 81.1539 21.2127Z" fill="#FCFCFC"/>
<path fill-rule="evenodd" clip-rule="evenodd" d="M100.149 0V29.3054H106.4V26.4648C106.866 27.3231 107.639 28.0996 108.717 28.7944C109.796 29.4757 111.127 29.8163 112.712 29.8163C114.043 29.8163 115.275 29.5438 116.407 28.9988C117.538 28.4539 118.524 27.7114 119.362 26.7713C120.215 25.8313 120.88 24.7141 121.36 23.4198C121.839 22.1255 122.079 20.7222 122.079 19.21C122.079 17.7113 121.839 16.3148 121.36 15.0205C120.88 13.7126 120.215 12.5887 119.362 11.6486C118.524 10.6949 117.538 9.95239 116.407 9.42104C115.275 8.88973 114.056 8.62403 112.752 8.62403C111.194 8.62403 109.869 8.95785 108.777 9.62542C107.685 10.293 106.893 11.09 106.4 12.0164V0H100.149ZM106.74 21.2331C106.514 20.6064 106.4 19.932 106.4 19.21C106.4 18.5151 106.514 17.8612 106.74 17.2481C106.98 16.635 107.306 16.09 107.719 15.6132C108.131 15.1363 108.624 14.7617 109.197 14.4892C109.769 14.2167 110.408 14.0805 111.114 14.0805C111.82 14.0805 112.465 14.2167 113.051 14.4892C113.637 14.7617 114.136 15.1363 114.549 15.6132C114.962 16.09 115.275 16.6418 115.488 17.2685C115.714 17.8952 115.827 18.5424 115.827 19.21C115.827 19.9184 115.708 20.586 115.468 21.2127C115.242 21.8394 114.922 22.3843 114.509 22.8476C114.096 23.2972 113.604 23.665 113.031 23.9511C112.459 24.2236 111.82 24.3598 111.114 24.3598C110.408 24.3598 109.769 24.2304 109.197 23.9715C108.624 23.699 108.131 23.3312 107.719 22.868C107.306 22.3912 106.98 21.8462 106.74 21.2331Z" fill="#FCFCFC"/>
<path d="M124.557 0V29.3054H130.808V0H124.557Z" fill="#FCFCFC"/>
<path fill-rule="evenodd" clip-rule="evenodd" d="M153.866 16.2004C153.746 15.5224 153.544 14.8628 153.261 14.2215C152.795 13.105 152.111 12.128 151.207 11.2906C150.331 10.4532 149.263 9.78325 148.004 9.28081C146.772 8.77836 145.376 8.52713 143.815 8.52713C142.09 8.52713 140.571 8.80627 139.256 9.36455C137.97 9.92282 136.874 10.6904 135.971 11.6674C135.095 12.6165 134.424 13.733 133.958 15.0171C133.52 16.3011 133.301 17.6828 133.301 19.1623C133.301 20.7254 133.534 22.163 134 23.475C134.465 24.759 135.149 25.8755 136.053 26.8246C136.957 27.7737 138.065 28.5134 139.38 29.0437C140.721 29.5462 142.254 29.7974 143.979 29.7974C145.313 29.7974 146.515 29.6382 147.584 29.3197L148.181 28.4173L168 0H165.21L153.866 16.2004ZM139.544 20.7115C139.571 21.3256 139.653 21.9118 139.79 22.4701C139.955 23.0004 140.201 23.4749 140.529 23.8937C140.885 24.2844 141.337 24.6055 141.885 24.8567C142.432 25.08 143.117 25.1916 143.938 25.1916C145.033 25.1916 145.855 24.9683 146.402 24.5217C146.977 24.0751 147.374 23.5308 147.593 22.8888H149.183L150.707 20.7115H139.544ZM143.774 12.7979C142.542 12.7979 141.529 13.1608 140.735 13.8866C139.941 14.6123 139.544 15.6591 139.544 17.0269H147.84C147.84 15.7149 147.456 14.6821 146.69 13.9284C145.951 13.1748 144.979 12.7979 143.774 12.7979Z" fill="#FCFCFC"/>
</svg>
