<?xml version="1.0" encoding="utf-8"?>
<!-- SVG sprite containing all the icons, this can be used conveniently with the `Icon` component -->
<!-- Why use an SVG sprite? See: https://kurtextrem.de/posts/svg-in-js -->
<svg xmlns="http://www.w3.org/2000/svg">
	<defs>
		<!-- Feather Icons (https://feathericons.com) -->
		<!-- loader -->
		<symbol id="loader" viewBox="0 0 24 24" fill="none" stroke="currentColor" stroke-width="2" stroke-linecap="round" stroke-linejoin="round">
			<line x1="12" y1="2" x2="12" y2="6"></line>
			<line x1="12" y1="18" x2="12" y2="22"></line>
			<line x1="4.93" y1="4.93" x2="7.76" y2="7.76"></line>
			<line x1="16.24" y1="16.24" x2="19.07" y2="19.07"></line>
			<line x1="2" y1="12" x2="6" y2="12"></line>
			<line x1="18" y1="12" x2="22" y2="12"></line>
			<line x1="4.93" y1="19.07" x2="7.76" y2="16.24"></line>
			<line x1="16.24" y1="7.76" x2="19.07" y2="4.93"></line>
		</symbol>
		<!-- check -->
		<symbol id="check" viewBox="0 0 24 24" fill="none" stroke="currentColor" stroke-width="2" stroke-linecap="round" stroke-linejoin="round">
			<polyline points="20 6 9 17 4 12"></polyline>
		</symbol>
		<!-- x -->
		<symbol id="x" viewBox="0 0 24 24" fill="none" stroke="currentColor" stroke-width="2" stroke-linecap="round" stroke-linejoin="round">
			<line x1="18" y1="6" x2="6" y2="18"></line>
			<line x1="6" y1="6" x2="18" y2="18"></line>
		</symbol>
		<!-- heart -->
		<symbol id="heart" viewBox="0 0 24 24" fill="none" stroke="currentColor" stroke-width="2" stroke-linecap="round" stroke-linejoin="round">
			<path d="M20.84 4.61a5.5 5.5 0 0 0-7.78 0L12 5.67l-1.06-1.06a5.5 5.5 0 0 0-7.78 7.78l1.06 1.06L12 21.23l7.78-7.78 1.06-1.06a5.5 5.5 0 0 0 0-7.78z"></path>
		</symbol>
	</defs>
</svg>
